<svg xmlns="http://www.w3.org/2000/svg" viewBox="0 0 428.32 431.26"><defs><style>.cls-1{fill:#2a72b8;}</style></defs><g id="Layer_2" data-name="Layer 2"><g id="Layer_1-2" data-name="Layer 1"><path class="cls-1" d="M424.07,173c-1.36-8.08-9-10.47-15.76-5.1l-7.49,5.94-20.24,16.07L359,207q-4.39,3.48-8.82,6.95-26-20.64-51.62-41c-.09-1-.93-1.71-2.38-1.89l-6.9-5.48c-4.2-3.34-7.52-4-11.36-1.95a18.43,18.43,0,0,0-2.83,1.9l-8.31,6.6-13.59,10.81-5.57,4.44q-3,2.41-6.08,4.84l-6.26,5-1.5,1.2L214.21,214c-.66-.51-1.22-.92-1.76-1.35l-.93-.73-5.77-4.59L204.1,206l-5.21-4.14-5.41-4.31q-20.4-16.23-40.82-32.43c-4.48-3.55-8.59-3.53-13.06,0q-21.15,16.75-42.25,33.58L78.16,214c-.45-.32-.78-.52-1.08-.76l-10.91-8.73c-5.38-4.3-10.76-8.6-16.19-12.85a5.24,5.24,0,0,1-1-1l-.61-.49L31.6,176.65c0,.08,0,.17-.05.25L28,174.14,19.2,167.2a9.14,9.14,0,0,0-9.07-1.64c-3.29,1.14-5.38,3.35-5.74,6.64C3,184.44,1.28,196.68.5,209a248,248,0,0,0-.11,29.61,234.2,234.2,0,0,0,7.94,48.84,184.2,184.2,0,0,0,15.27,39,12,12,0,0,0,1.12,1.73l13.16,20.46,3.1,4.81a10.88,10.88,0,0,0,1.14,1.78A180.21,180.21,0,0,0,79.48,391a207.31,207.31,0,0,0,27.94,16.74c29.35,14.57,61.51,21.85,95.84,23.25a258.39,258.39,0,0,0,64.62-5.34c1.25-.27,2.5-.54,3.75-.83a238.93,238.93,0,0,0,31.64-9.55,203.76,203.76,0,0,0,35.27-17.45q6.7-4.2,13.07-9a187.48,187.48,0,0,0,19.93-17.2C395,348.44,410.15,321,419.08,290.54a234.59,234.59,0,0,0,8.92-54.9c0-.11,0-.22,0-.33A291.23,291.23,0,0,0,424.07,173ZM65.79,226c-.89.78-1.79,1.56-2.7,2.31A2,2,0,0,1,61.4,228c-1.25-1.25-1-2.7.87-4.73Zm-3.23,67.69a4.28,4.28,0,0,1-5.66,0C58.84,292.52,60.59,293.13,62.56,293.71ZM18.07,224.6c0,.61,0,1.23,0,1.85C18.07,225.83,18.07,225.21,18.07,224.6Zm.15,8.06v0Zm.32,6.23.12,1.83Zm.49,6.44c0,.62.11,1.23.17,1.85C19.14,246.56,19.08,246,19,245.33Zm-.77-33.39q.25-6.91.81-13.83-.55,6.91-.81,13.83l1.8-22.22,19.72,15.63L62,223l-5.52-2.26c-.3,3-2.28,3.72-4.84,4.06-4,.53-5.43,2.38-4.81,6.14.28,1.75-.15,3-2.08,3.49-5.48,1.33-8.28,5-9.95,9.6a18.6,18.6,0,0,1-9.69,11c-.23.12-.48.22-1.12.51l-3.45,2.94c.61,4.17,1.35,8.3,2.19,12.41q-1.78-8.65-2.89-17.48c.21,1.69.45,3.38.7,5.06ZM18.08,220c0-.61,0-1.23,0-1.84C18.09,218.76,18.08,219.38,18.08,220Zm8.81,67.36c-.35-1.19-.69-2.37-1-3.56q-.78-2.85-1.47-5.72.69,2.87,1.47,5.72l10,3.32-1.63,1.39,2.62,1.23c-3.19.73-5.87,1.71-8.91,1.07-.12-.35-.22-.71-.33-1.07l1.19-1.44C28.16,288,27.52,287.66,26.89,287.35Zm4.61,8.44c-.72-.12-1.37-.21-2-.3-.22-.63-.43-1.27-.65-1.91A3.45,3.45,0,0,1,31.5,295.79ZM41.36,292l-2.42-1.65c2.63-1.25,11.05.81,13.78,3.46a57.06,57.06,0,0,1-16.19.09C37.33,291.23,40,293.36,41.36,292ZM22.89,271.47q.6,2.86,1.29,5.71Q23.49,274.33,22.89,271.47ZM94.53,380.85a169.1,169.1,0,0,1-38-35.45L39.72,319.25c-1-2-2-3.95-2.94-5.95.39-.33.77-.66,1.18-1a2.8,2.8,0,0,1,2-.63c.48.2.64,1.17.85,1.82a5,5,0,0,1,.08,1.26,5.2,5.2,0,0,0,5.42-1.12c3.89-3.47,5.55-3.49,9.43.05a5.58,5.58,0,0,0,6.15,1.4,19.86,19.86,0,0,1,3.09-.73,5.68,5.68,0,0,1,5.83,2A11.6,11.6,0,0,1,72,317.75c2.77,5.19,7.83,6.72,13.54,7.6a36.57,36.57,0,0,1,10.06,2.77c4.62,2.22,6.06,6.55,6.57,11.05a2.79,2.79,0,0,0,2.74,2.72c2.94.39,5.89.84,8.85,1,1.67.08,2.6.52,3.11,2,1.06,3.12,1.16,3,4.83,3.16,6.26.22,12.25,1.48,17.5,4.8,4.31,2.73,5.17,6.34,1.54,9.78-5.17,4.89-6.53,10.65-7,17.09A48.31,48.31,0,0,1,131,391.12c-1.11,3.33-3.84,5.23-7.73,5.55l-.14,0A184.52,184.52,0,0,1,94.53,380.85ZM406.12,268q-1.15,5.89-2.64,11.76c-.11.45-.23.89-.35,1.33a9.43,9.43,0,0,0-8.4-3.77c-2.85.1-5.69.34-8.52.32-3.19,0-6.37-.26-9.55-.48a4,4,0,0,1-3.6-2.93c-.66-1.86-1.93-2.37-3.76-1.59-4.35,1.85-7.95.86-11.16-2.21a32.84,32.84,0,0,0-4-3.23,5.35,5.35,0,0,0-6.22-.32c2,2.74,3.95,5.46,6,8.08a34.72,34.72,0,0,0,4,4.35c2.2,2,4.37,1.84,6.41-.33,1.2-1.27,2.41-2.39,4.43-2.36,1.1,0,1.71.27,1.6,1.47-.12,1.42,0,2.86,0,4.3a44,44,0,0,1,5.76.05c2.39.34,3.07,1.36,2.94,3.56-.29,4.83-7.73,12.54-13,13-2.22.2-3.65.61-4.52,2.59-.27.63-1.41,1.06-2.24,1.31-5.38,1.63-10.79,3.18-16.19,4.76-2.92.86-4.58.44-6.07-2.1-2.56-4.36-5-8.77-7.26-13.28A68.41,68.41,0,0,0,314,270.8c-1.47-1.3-3.86-1.72-6-2.62a6.19,6.19,0,0,0,.61,5.63,42,42,0,0,0,4.57,6.36,40.29,40.29,0,0,1,8.16,13.42,22.32,22.32,0,0,0,2.58,5.34,25.21,25.21,0,0,0,5,5.43,17.56,17.56,0,0,1,5.43,5.9,51.45,51.45,0,0,0,2.89,4.57,4.4,4.4,0,0,0,5.26,2c4.07-1.11,8.11-2.32,12.16-3.5.91-.26,1.82-.54,3.16-1-2.74,6.78-4.56,13.45-8.59,19.28a7.11,7.11,0,0,1-2.95,2.44c-6.35,2.56-11,6.79-14.9,11.95-1.73,2.29-3.87,4.32-5.7,6.56a2.8,2.8,0,0,0-.59,2.17c1.32,5.73,3.61,11.29,3.65,17.24,0,2.48-.09,4.95-.2,7.43-.05,1.32-.85,2-2.26,2.47-7.21,2.26-10,4.35-10.7,9.62a207.84,207.84,0,0,1-47.71,17.18q-3.74.87-7.48,1.6a27.42,27.42,0,0,1-1.6-5.6c-.57-3.15-2.21-6.15-3.52-9.17s-2.84-5.82-4.14-8.78a7.75,7.75,0,0,1-.08-6.31c4-9.44,2.24-18.77-.88-28a9.57,9.57,0,0,0-3.22-4.29c-4.15-3.15-4.58-7.09-3.66-11.53.39-1.84.55-3.71.84-5.73a15.22,15.22,0,0,0-2.56,0,10.65,10.65,0,0,1-9.22-2.55,7.14,7.14,0,0,0-8.08-1.09c-5.59,2.66-11.31,2.39-17.22,1.45a16,16,0,0,0-5.21.42,29.06,29.06,0,0,0-4.22,1.33,5.75,5.75,0,0,1-6.13-1,100.55,100.55,0,0,1-8.2-8.46c-3.39-4-6.61-8.2-9.58-12.49A10.4,10.4,0,0,1,172,303c-.1-5.61,0-11.25.41-16.85.32-4.12,3.2-7.24,6.33-9.94,2.89-2.49,6.22-4.55,9.2-7a10.85,10.85,0,0,0,3.3-3.85,24.21,24.21,0,0,1,6-8.42,16,16,0,0,1,9.12-4.06c6.83-1,13.5-2.95,20.31-4.2,6-1.11,12-1.8,18-2.72,1.8-.27,2.63.68,3.22,2,.78,1.66,1.34,3.36-.2,5a12,12,0,0,1-1.3,1c1,2,2.91,2.87,5,3.44,1.36.38,2.77.56,4.17.82,2,.39,3.69.88,5,2.8.89,1.32,3.13,2.11,4.94,2.6a48.36,48.36,0,0,0,7,.86c.05-.89,0-1.7.15-2.51.36-2.73,2-3.89,4.87-3a71.07,71.07,0,0,1,7.61,3,11.51,11.51,0,0,0,8.64.59c4.27-1.42,8.51-1,12.74.17,1.48.42,3,.78,4.59,1.21,2.25-5,4.12-9.83,3.75-15.43-4,.72-7.8,1.46-11.66,2.1-6.89,1.14-7.78.66-10.46-5.25-2.27-5-2.26-5,2.71-7.81a25.28,25.28,0,0,1,11.9-3.24c5-.14,10.09,0,15.14-.06,2.16,0,4.32-.36,7.24-.62-1.46-2.24-2.53-3.95-3.68-5.62a4.91,4.91,0,0,0-1.36-1.24c-4-2.53-6.78-5.5-3.78-10.85l-9.38,2.42c.67,1.6,1.27,3,1.86,4.47-3.16,2.14-4.61,1.86-6.39-1.19a17.08,17.08,0,0,0-1.17-1.86,3.87,3.87,0,0,0-6-.48,13.78,13.78,0,0,0-2,2.73,55.27,55.27,0,0,0-3.32,5.68,8.71,8.71,0,0,0-.81,3.94,3.37,3.37,0,0,1-2.46,3.66c-1.43.57-2.73,1.4-4.16,2-1.71.69-3.49,1.24-5.22,1.84,1.74,1.42,3.59,3.24,2.93,6.22l-4-.73c.18,1.51.34,2.92.56,4.82a34.78,34.78,0,0,1-3.18-2.25,22.41,22.41,0,0,1-7.12-11,11.3,11.3,0,0,0-4.69-6.55c-3.9-2.72-7.9-5.32-11.83-7.95-2,1.81-2.25,3.76-.22,5.48a74,74,0,0,0,6.63,4.56c.46.31,1,.53,1.45.82,5,3.06,5.14,3.52,3.2,8.65-.56,1.48-1,3-1.72,4.42-.24.5-.95,1.16-1.43,1.15a2.4,2.4,0,0,1-1.78-1,11.83,11.83,0,0,1-1.14-3.74,6.12,6.12,0,0,0-2.28-4c-3.22-2.86-6.17-6-9.51-8.71-3.76-3.06-4.9-3-9.16-.58-1.34.76-2.45,1.15-4-.05-2-1.58-5.77-.45-6.59,2.17a7.27,7.27,0,0,1-5.19,5.07,3.86,3.86,0,0,0-2.11,2.61,10.8,10.8,0,0,1-9.79,8.33,93.15,93.15,0,0,1-10.43-.38c-4.61-.43-7-2.82-7.26-7.06a37.16,37.16,0,0,1,.22-7.23c.48-3.34,2.86-5.29,6.55-5.3,1,0,2,0,2.94.05l4.51,3.58c4.67,3.72,8.87,3.74,13.47.08l47.27-37.61c1.25,0,2.52.16,3.75.31,1.71.22,2.77-.31,3.39-1.68,1-2.17,1.92-4.35,2.86-6.53l0,0,1.79-1.42a6.58,6.58,0,0,0,1.14.75c.71.33,1.8.84,2.27.57a2.53,2.53,0,0,0,1-1.42q29.76,23.65,59.5,47.3a9.83,9.83,0,0,0,7.53,2.41c.62.56,1.24,1.12,1.84,1.7,1.34,1.29,1.41,2.5-.39,3.52a2.91,2.91,0,0,0-1.47,3.85c1.69,5.57,9.32,7.86,14.49,4.27l-2.84-5c-.86-1.53-1.15-2.69,1-3.81s2-2.3.15-4.12c-1.62-1.63-3.17-3.32-4.71-5q14.82-11.76,29.62-23.56l4.23-3.36,15.25-12.09c.49,7.1,1,13.63,1.38,20.17A231.18,231.18,0,0,1,406.12,268Z"/><path class="cls-1" d="M49,191.76a5.27,5.27,0,0,0,1,1c5.43,4.25,10.81,8.54,16.19,12.84q5.46,4.37,10.91,8.73l.37.27c.59-.1,1.17-.21,1.76-.34Q88.32,207,97.35,199.8l9.16-7.3a39.9,39.9,0,0,1-.5-4.29c-2.09-15.49-4-31-3.31-46.66a189.12,189.12,0,0,1,2.31-23c.64-3.75,2.81-7.34,4.61-10.87,9.63-18.91,24.32-33.65,43.45-44.84,9.47-5.55,18.63-11.57,28.24-17.56A95,95,0,0,0,126,40.89c2.17-2.11,14.11-6.38,21.72-8a97,97,0,0,1,23.68-2.07,101.79,101.79,0,0,1,23.25,3.56C181,24.05,165.33,18.27,147.77,16.45c1.89-.36,3.77-.75,5.66-1.07s3.94-.73,5.92-.91a92.25,92.25,0,0,1,68,19.79c4.33,3.39,9.29,6.09,14,9.06,13.49,8.51,27.32,16.59,40.42,25.58,17.54,12,30.88,27.37,38.56,46.42,1.32,3.26,1.58,7,1.69,10.53.24,7.94.3,15.9,0,23.84-.28,7.71-1.11,15.4-1.65,23.1-.42,5.88-.77,11.75-1.16,17.63l29.9,23.78c.59.13,1.18.25,1.78.34,2.72-2.14,5.44-4.27,8.14-6.42L380.58,191l4-3.15c0-.14,0-.28,0-.43q0-28,0-55.95a29.16,29.16,0,0,0-.43-5.19c-2.4-13.06-13.43-22-27.76-22.59a1.83,1.83,0,0,1-1.93-1.34c-1.2-2.92-2.36-5.87-3.76-8.71Q322.17,35.75,256.4,16.22a145.78,145.78,0,0,0-37.78-5.9A14.86,14.86,0,0,1,212.74,9,104.29,104.29,0,0,0,178.31.36a110.18,110.18,0,0,0-36,3c-5.59,1.42-9.19,4.84-10.76,10-.93,3.1-.35,6.08,1,9.12-2.83,1.12-5.53,2.11-8.15,3.27s-5.23,2.39-7.74,3.74c-5.77,3.08-8.7,9.2-7,15.07.47,1.62,0,2.36-1.16,3.36-17.72,15.4-30.83,33.59-39,54.78A2.63,2.63,0,0,1,67.82,104c-14.25,2.43-24,13.14-24.07,26.46q0,28.53,0,57.07l4.63,3.72Zm292.87-62.15c0-5.9,5.44-11.41,11.76-12.07,7.17-.76,13.7,3.17,15.27,9.3a19.51,19.51,0,0,1,.52,4.82c.05,9.24,0,18.48,0,27.72,0,9.41-.1,18.82,0,28.22a13.29,13.29,0,0,1-10.17,13c-8.53,2.2-17.4-3.71-17.43-11.86C341.81,169,341.84,149.33,341.87,129.61ZM243,26.91c47.18,11.65,79.77,38.34,97.6,80.4l-5.16,3.83c-3.57-6.39-6.8-13-10.86-19.23C314.23,76.1,300.32,63.32,283.73,53L243,27.59a1.1,1.1,0,0,1-.23-.25ZM85.77,102.23A125.84,125.84,0,0,1,121.17,56a5.68,5.68,0,0,1,2.56-.86c3.64-.6,7.29-1.14,10.94-1.65,2.36-.34,4.73-.6,7.09-.89-23,14.63-39.71,33.67-49.84,57.72-1.27-.83-2.41-1.64-3.6-2.34s-2.51-1.35-4-2.13C84.8,104.69,85.23,103.43,85.77,102.23ZM58.73,159q0-14.28,0-28.57c0-6.33,4.3-11.3,10.93-12.76C77,116.09,85,121,86.11,127.8a26.28,26.28,0,0,1,.35,4.34q0,27.72,0,55.45a12.94,12.94,0,0,1-9.83,12.9c-9.7,2.48-17.84-3.86-17.9-12.56,0-4.81,0-9.63,0-14.44Z"/><path class="cls-1" d="M229.11,175.5a29.75,29.75,0,0,0-15.56-4.92,28.41,28.41,0,0,0-13.33,3.74c-7.15,4-12.93,9.38-18.33,15.11l11.59,9.2,5.41,4.31,4.71,3.74a90.43,90.43,0,0,1-9.16-9.3c4.25-4.32,8.53-8.42,13.94-11.36a10.61,10.61,0,0,1,11,.22c5.15,3,9.33,6.94,13.45,11.14-4.29,4.87-8.56,9.66-14.37,13a9.17,9.17,0,0,1-9.91-.17,34.82,34.82,0,0,1-3.3-2.25l.5.4,5.77,4.59.92.74c.55.43,1.11.84,1.77,1.34l19.6-15.58,1.5-1.19,6.26-5,4.27-3.4A85.18,85.18,0,0,0,229.11,175.5Z"/><path class="cls-1" d="M273.72,149.76c-9.08-.07-16.87,6.87-16.91,15.05a15.32,15.32,0,0,0,5.62,11.89l4.38-3.49,8.31-6.6a18.32,18.32,0,0,1,2.83-1.89c3.84-2,7.16-1.4,11.36,1.94l.81.64a14.58,14.58,0,0,0,.18-2C290.45,156.83,282.81,149.83,273.72,149.76Z"/><path class="cls-1" d="M152.09,150c-9.07,0-16.66,6.78-16.66,15a14.48,14.48,0,0,0,.59,4.08q1.8-1.41,3.58-2.84c4.47-3.54,8.58-3.56,13.06,0l11.58,9.2a14.39,14.39,0,0,0,4.29-10.06C168.54,156.83,161.28,150.05,152.09,150Z"/></g></g></svg>